<?xml version="1.0" encoding="utf-8"?>
<!-- Generator: Adobe Illustrator 18.0.0, SVG Export Plug-In . SVG Version: 6.00 Build 0)  -->
<!DOCTYPE svg PUBLIC "-//W3C//DTD SVG 1.1//EN" "http://www.w3.org/Graphics/SVG/1.1/DTD/svg11.dtd">
<svg version="1.1" id="Layer_1" xmlns="http://www.w3.org/2000/svg" xmlns:xlink="http://www.w3.org/1999/xlink" x="0px" y="0px"
	 viewBox="0 0 1483.9 1080" enable-background="new 0 0 1483.9 1080" xml:space="preserve">
<rect x="1057.5" y="761" fill="#DBE2FF" width="150.3" height="148.3"/>
<rect x="1271.8" y="444.6" fill="#DBE2FF" width="150.3" height="464.6"/>
<rect x="119.3" y="909.4" fill="#90A3F5" width="556.9" height="37.4"/>
<polygon fill="#90A3F5" points="1207.6,946.8 847.8,946.8 847.8,909.4 1207.6,909.4 "/>
<rect x="1335.6" y="909.4" fill="#90A3F5" width="112.1" height="37.4"/>
<path fill="#4D66A1" d="M452.1,894.4c-2.3,2.9-2.3,5,6.7,6.7c8.6,1.6,6.3,3.2,6.7,4.9l-10.3-0.2c0,0-2.5,0-9,0c-6.1,0-5.2-5.6-4-11
	c1.1-4.1,12.1-27.7,12.1-27.7l12.6,5.4C467.1,872.3,456.8,888.8,452.1,894.4z"/>
<rect x="441" y="905.9" transform="matrix(1 4.631127e-003 -4.631127e-003 1 4.2078 -2.0955)" fill="#90A3F5" width="27.2" height="3.2"/>
<path fill="#7622A4" d="M391.5,722.7c20,8.1,49.9,50.9,65.7,67.3c15.8,16.4-16.4,13-11.5,28.8c3.1,9.7-11,9.5-12.6,19.6
	c-1.3,8.1,13.9,4.1,1.3,23.4c-9.2,14,4.1,13,11.9,22.7c7.4,9.2,24.8,7.4,24.8,7.4s27.2-59.9,30.1-83.5c2.9-23.4-4.3-32.9-19.1-52.7
	c-7.2-9.7-32.8-17.1-43.6-25.4c-39.4-30.6-43.2-52.6-43.2-52.6s-31-8.1-32.4,2c-2.2,15.1,2,30.4,2,30.4L391.5,722.7z"/>
<path fill="#7622A4" d="M468.1,905.9c0,0,0.5-2.9-4.5-4.3c-5.2-1.4-12.2-4-12.2-4s-1.1-2.3-0.5-3.4c2-4.1-4.7-4.9-4.9-0.7
	c-0.2,2.5-0.7,3.2-0.7,3.2l-4.5,0.4v8.8H468.1z"/>
<path fill="#FFFFFF" d="M457.7,904.3c-0.4,0-0.7-0.2-1.1-0.5c-0.5-0.5-0.4-1.4,0.2-2c0.2-0.2,1.8-1.6,5.8-2.3
	c0.7-0.2,1.4,0.4,1.6,1.1c0.2,0.7-0.4,1.4-1.1,1.6c-3.2,0.7-4.7,1.8-4.7,1.8C458.2,904.1,457.9,904.3,457.7,904.3z"/>
<path fill="#FFFFFF" d="M451.9,902.7c-0.4,0-0.7-0.2-1.1-0.5c-0.5-0.5-0.4-1.4,0.2-2c0.2-0.2,1.8-1.6,5.8-2.3
	c0.7-0.2,1.4,0.4,1.6,1.1c0.2,0.7-0.4,1.4-1.1,1.6c-3.2,0.7-4.7,1.8-4.7,1.8C452.7,902.5,452.3,902.7,451.9,902.7z"/>
<path fill="#FFFFFF" d="M446.7,900.5c-0.4,0-0.7-0.2-1.1-0.5c-0.5-0.5-0.4-1.4,0.2-2c0.2-0.2,1.8-1.6,5.8-2.3
	c0.7-0.2,1.4,0.4,1.6,1.1s-0.4,1.4-1.1,1.6c-3.2,0.7-4.5,1.8-4.7,1.8C447.4,900.5,447.1,900.5,446.7,900.5z"/>
<path fill="#4D66A1" d="M333.5,896.6c-2.3,2.9-2.3,5,6.7,6.7c8.6,1.6,6.3,3.2,6.7,4.9l-10.3-0.2c0,0-2.5,0-9,0c-6.1,0-5.2-5.6-4-11
	c1.1-4.1,12.1-27.7,12.1-27.7l12.6,5.4C348.4,874.4,338.2,891,333.5,896.6z"/>
<polygon fill="#90A3F5" points="322.3,909.4 349.5,909.2 349.5,905.9 322.3,905.9 "/>
<path fill="#7622A4" d="M349.5,905.9c0,0,0.5-2.9-4.5-4.3c-5.2-1.4-12.2-4-12.2-4s-1.1-2.3-0.5-3.4c2-4.1-4.7-4.9-4.9-0.7
	c-0.2,2.5-0.7,3.2-0.7,3.2l-4.5,0.4v8.8H349.5z"/>
<path fill="#7622A4" d="M358.3,697.9c7,13.1,13.5,66.4,18.2,85.3c4.7,18.9-7.4,11-13.7,16.6c-3.8,3.4-6.3,6.8-9.2,22.9
	c-1.8,9.9-11.3,11.9-16.7,21.1c-4.3,7.4,10.8,13-6.3,28.4c-12.4,11.2-2.3,13.5,6.1,20.5c12.4,10.3,20.2,4.7,20.2,4.7
	s53.6-61.7,65.3-83.3c11.7-21.6,6.1-28.1,3.8-50.2c-1.3-10.8-18.2-46.4-22.5-56.7c-15.7-37.6-13.1-29.3-13.1-29.3l-12.8-18.5
	L358.3,697.9z"/>
<g>
	<g>
		<defs>
			<path id="SVGID_1_" d="M358.3,697.9c7,13.1,13.5,66.4,18.2,85.3c4.7,18.9-7.4,11-13.7,16.6c-3.8,3.4-6.3,6.8-9.2,22.9
				c-1.8,9.9-11.3,11.9-16.7,21.1c-4.3,7.4,10.8,13-6.3,28.4c-12.4,11.2-2.3,13.5,6.1,20.5c12.4,10.3,20.2,4.7,20.2,4.7
				s53.6-61.7,65.3-83.3c11.7-21.6,2.3-26.1,0-48.4c-1.3-10.8-14.4-48.2-18.7-58.5c-15.7-37.6-13.1-29.3-13.1-29.3L365,665.1
				L358.3,697.9z"/>
		</defs>
		<clipPath id="SVGID_2_">
			<use xlink:href="#SVGID_1_"  overflow="visible"/>
		</clipPath>
		<path clip-path="url(#SVGID_2_)" fill="#FFFFFF" d="M325,899.5c-1.6,0-3.1-0.7-3.6-1.4c-0.5-0.5-0.5-1.4,0-2s1.4-0.5,2,0
			c0,0,1.1,1.1,2.3,0.5c1.1-0.4,2.9-1.8,4.3-8.3c1.4-6.8,6.8-9.9,11.5-12.6c5.6-3.4,10.6-6.3,9.2-14.9c-2.7-16.7,0-23,12.4-28.1
			c6.8-2.7,6.3-9,5.8-15.7c-0.2-2.9-0.5-5.8,0-8.3c0.9-4.7,6.3-5.9,11-7c5.4-1.3,8.8-2.2,8.6-5.4c0-2.2-1.1-9.5-2.7-19.8
			c-4.3-30.8-12.6-87.8-10.6-114.7c0-0.7,0.7-1.3,1.4-1.3s1.3,0.7,1.3,1.4c-2,26.5,6.3,83.5,10.6,114.1c1.6,10.6,2.5,17.8,2.7,20
			c0.2,5.6-5.6,7-10.8,8.1c-4.3,0.9-8.5,2-9,4.9c-0.4,2.2-0.2,4.7,0,7.6c0.5,6.7,1.3,14.9-7.6,18.4c-10.4,4.3-13.5,8.5-10.8,25
			c1.8,10.4-4.7,14.4-10.4,17.6c-4.5,2.7-9,5.2-10.1,11c-1.3,6.1-3.4,9.5-6.3,10.4C325.9,899.5,325.4,899.5,325,899.5z"/>
	</g>
</g>
<path fill="#4D66A1" d="M445.3,611.8c-1.1,23.8,12.8,107.1,11.2,124.9c-2.5,28.8-18.7,29.7-23.8,31.1c-5.2,1.4-5.4-10.4-5.4-10.4
	l11-20.9c0,0-5.9-97.6-5.6-103C433,628.4,445.3,611.8,445.3,611.8z"/>
<path fill="#DBE2FF" d="M439.7,640.1c-21.1,47.2-7.9,82.4,8.1,92.5s-23.8-1.4-41.4,2.2c-17.6,3.6-12.4,14.4-25.7,16.2
	c-13.1,1.8-18.7-17.1-25.4-38.9c-9-30.2,22-98.1,30.6-111.1c11.7-17.5,44.5-11,56.3,3.6C450.7,614.7,443.1,632.5,439.7,640.1z"/>
<path fill="#B8C5FF" d="M263.8,1014.1l-42.3-6.1c12.4-85.3,40.3-158,80.3-210.2c36-46.8,80.8-74.9,123.3-76.9l2,42.8
	C365.2,766.6,287.1,855.4,263.8,1014.1z"/>
<path fill="#7622A4" d="M433,641.3c-9.4,14-15.1,41.6-12.1,50c0,0-25.7,6.3-28.8,5.8c-2.9-0.5-1.4-51.5-1.4-52s7.2-14.6,9.2-15.5
	C401.9,628.9,433,641.3,433,641.3z"/>
<path fill="#4D66A1" d="M432.7,760.7c-19.6,8.3-19.8,4.3-27.5,0.5c-7.7-3.8-31-50.2-35.5-74c-4.5-23.8,13-78.5,18.7-86.8
	c7.9-11,26.8-8.5,22.1,13.9c-4.7,22.3-20.3,56.2-18.9,69.3s22,70.4,24.5,72c2.5,1.6,6.3,2.7,6.3,2.7L432.7,760.7z"/>
<path fill="#4D66A1" d="M441.3,604.6c-0.4-0.4-4.1-6.1-4.1-6.1l5-12.6l-1.8-4.3l-14.6-11.5l-13.7,20.3c0,0,12.2,10.3,17.1,12.1
	C433.6,604.6,441.3,604.6,441.3,604.6z"/>
<path fill="#4D66A1" d="M423.9,573.1c-5.9-7.6-5-18.2,2.2-23.6c7.2-5.4,17.8-3.6,23.8,4.1c5.9,7.6,5.6,22,0,26.3
	C444,584.3,429.8,580.9,423.9,573.1z"/>
<linearGradient id="SVGID_3_" gradientUnits="userSpaceOnUse" x1="416.3047" y1="556.3799" x2="447.2903" y2="556.3799">
	<stop  offset="0" style="stop-color:#7622A4"/>
	<stop  offset="1" style="stop-color:#C60983"/>
</linearGradient>
<path fill="url(#SVGID_3_)" d="M447.3,550.8c0.7,8.3-14,4-14.6,5.6c0,0,2,11.3,3.8,13.7l-2.9,1.1c0,0-2.7-4.7-4.5-4
	c-1.8,0.5-0.9,3.8,0.9,5c1.8,1.3-2.5,3.4-2.5,3.4s-5.8-3.1-7.2-8.8s-4-18.9-4-18.9s19.1-8.1,19.3-10.8
	C435.2,537.1,446.9,545.9,447.3,550.8z"/>
<path fill="#FFFFFF" d="M343.2,905.6c-0.4,0-0.7-0.2-1.1-0.5c-0.5-0.5-0.4-1.4,0.2-2c0.2-0.2,1.8-1.6,5.8-2.3
	c0.7-0.2,1.4,0.4,1.6,1.1c0.2,0.7-0.4,1.4-1.1,1.6c-3.2,0.7-4.5,1.8-4.7,1.8C343.8,905.4,343.4,905.6,343.2,905.6z"/>
<path fill="#FFFFFF" d="M337.5,904c-0.4,0-0.7-0.2-1.1-0.5c-0.5-0.5-0.4-1.4,0.2-2c0.2-0.2,1.8-1.6,5.8-2.3c0.7-0.2,1.4,0.4,1.6,1.1
	c0.2,0.7-0.4,1.4-1.1,1.6c-3.2,0.7-4.5,1.8-4.7,1.8C338.2,904,337.8,904,337.5,904z"/>
<path fill="#FFFFFF" d="M332.2,902c-0.4,0-0.7-0.2-1.1-0.5c-0.5-0.5-0.4-1.4,0.2-2c0.2-0.2,1.8-1.6,5.8-2.3c0.7-0.2,1.4,0.4,1.6,1.1
	c0.2,0.7-0.4,1.4-1.1,1.6c-3.2,0.7-4.5,1.8-4.7,1.8C333,901.8,332.6,902,332.2,902z"/>
<rect x="582.3" y="579.1" fill="#DBE2FF" width="150.3" height="182.2"/>
<rect x="16" y="855" fill="#DBE2FF" width="178.4" height="54.4"/>
<rect x="819.9" y="578" fill="#DBE2FF" width="150.3" height="331.4"/>
<path fill="#B8C5FF" d="M420.1,764.5l-3.1-42.7c74.3-5.2,90.4-49,112.5-126c16.2-56.5,34.6-120.6,94.1-163.1
	c56.2-40.1,138.2-26.5,182.3-19.1c9.2,1.4,17.8,2.9,21.8,3.1c173.9,6.1,251.3-88,395.6-374.2l38.2,19.3
	c-70,138.6-130.1,244.3-196.7,309.6c-65.7,64.4-139.3,91.6-238.5,88.2c-6.7-0.2-15.8-1.8-27.2-3.6c-38-6.3-108.7-18.2-150.5,11.7
	c-47.3,33.8-63,87.8-77.9,140c-10.8,37.4-20.9,72.7-41.9,101.5C504.3,743,468.7,761,420.1,764.5z"/>
<path fill="#4D66A1" d="M428.7,768.1c-17.8-1.3-16.9-19.6-11.5-23.9c9.2-7.2,13-2.7,14.6,6.1c1.6,8.8,4.9,9.7,4.9,9.7
	s-1.4-9,0.5-12.1c2-3.1,7.9,9.2,10.3,11C449.8,760.7,433.2,768.4,428.7,768.1z"/>
<path fill="#7622A4" d="M1148.9,731.2c0,0,1.1,9.4,1.1,13.7c0.2,3.8,0.9,5.6-8.3,7.4c-8.8,1.8-9.2,5-9.4,6.7c0,0,20.7,0.2,27.2,0
	c0,0-0.5-17.6-0.5-20c0-4.3,0.2-21.4,0.2-21.4l-10.4,7.2L1148.9,731.2z"/>
<path fill="#B8C5FF" d="M1186.9,477.9c0.7,2.7,18.4,28.8,18.2,32.6c-2.5,70.7-21.2,105.5-20.7,113c0.7,8.5,28.3,32,26.1,47.9
	s6.8,24.5,7.9,32.2c1.1,7.7-4.7,18.7,1.4,27.7c6.1,9-15.1,14.4-15.1,14.4s-46.1-85-50.8-104.6c-3.4-14.6-12.1-134.1-12.1-134.1
	S1184,467.1,1186.9,477.9z"/>
<rect x="1132.2" y="759.1" fill="#112882" width="27.2" height="2"/>
<path fill="#DBE2FF" d="M1140.8,479.2c0,0-5.9,141.1-3.6,149.4s12.8,118.6,12.8,118.6s8.3-8.5,16.9-6.8c4.9,0.9,9.5-2.3,10.8-7.7
	s0.7-10.4-0.5-13.9c-2.5-7.7-4-13.7,0.2-34.6c4-20.7-11.7-34.2-7.9-48.2c3.8-14,35.6-125.6,35.6-125.6L1140.8,479.2z"/>
<path fill="#7622A4" d="M1202.2,740.9l4.1,7.2c0,0-13.3,5.2-13.9,6.8c-0.7,1.8,0.2,5,0.2,5l15.3-2.3l12.2-5.9l-6.7-14.6
	L1202.2,740.9z"/>
<polygon fill="#112882" points="1220.5,752.6 1208.5,758.3 1192.6,761 1192.1,758.7 1207.9,756 1219.5,750.4 "/>
<path fill="#7288E8" d="M1198.6,394c6.7,16.4,10.3,114.3,2.5,160.6c-1.1,6.7-18.5,7.2-34.7,4.9c-2.9-0.4-4.7-33.7-4.7-33.7
	s-10.3,30.4-13,29.5c-6.5-2.2-10.6-4.9-10.4-7.6c2.7-34-2.7-149.4-2.7-149.4C1159.3,392,1191.6,376.9,1198.6,394z"/>
<path fill="#7288E8" d="M1198.6,394c-10.8-35.8-39.2-157-40-159.8l-13.9,2c0,0,0,5.8,2,22.7c2,16.9,9,30.8,8.5,40.9
	c-0.5,10.1,0.4,28.3,7,38.9c11.3,18,14.9,66.1,14.9,66.1L1198.6,394z"/>
<path fill="#7288E8" d="M1139.2,397.1c-7,0.5-43.2,5.2-47.3,1.8c-4.1-3.4-23.6-48.6-23.6-48.6l-7.2,7.2c0,0-5.6,14.2-1.3,18.4
	s-4.3,22.7,7,24.5s12.8,23,23.9,24.8c35.1,5.6,53.8,5.6,53.8,5.6L1139.2,397.1z"/>
<path fill="#4D66A1" d="M1175.5,389c-5.8,2.5-18.9,5.2-23.2,4.9l-1.8-27.4l13.3-3.6L1175.5,389z"/>
<path fill="#4D66A1" d="M1140.8,346.5c6.3-7.4,16.9-8.8,23.9-3.2c7,5.8,7.6,16.4,1.3,23.8c-6.3,7.4-20.7,10.4-26.1,5.8
	C1134.1,368.5,1134.5,354.1,1140.8,346.5z"/>
<path fill="#7622A4" d="M1168,373c-7.7,0.7-14.8-0.7-15.3-1.8c-0.5-1.1-2.2-8.1-2.2-8.1s3.4-1.6,1.6-5.6c-0.9-1.8-2.9-3.2-4.3-1.1
	c-1.4,2.2-1.6,6.1-1.6,6.1h-3.1c0,0-0.4-6.7-0.7-8.1c-0.4-1.3-5.2-1.8-5.2-1.8s-6.7-6.7-6.7-13.9c0-7.2,15.8-11.5,20.3-5.4
	c0,0,4.9-4.5,11.5-3.1c6.7,1.6,7,8.6,5.9,10.6c0,0,9.2-1.8,9,4.5c0,6.1-3.8,7.6-3.8,7.6L1168,373z"/>
<path fill="#4D66A1" d="M1158.6,234c0,0-1.1-17.3-6.3-22.5c-2.5-2.5-12.1-4.7-10.1,7.9c1.1,6.5,2.3,16.6,2.3,16.6L1158.6,234z"/>
<path fill="#4D66A1" d="M1068.3,350.3c-0.7-5.2,3.8-12.1-1.8-17.6c-5.6-5.6-11,4.1-8.6,8.8c2.3,4.5-1.6,9.5,3.1,16L1068.3,350.3z"/>
<path fill="#4D66A1" d="M1144.8,236c-3.2-4.3-6.7-10.1-4.7-9.7c2,0.4,3.8,2.2,3.8,2.2l3.4,4.3L1144.8,236z"/>
<path fill="#4D66A1" d="M1069,339.8c0,0,2.2-3.6,2.7-4c0.5-0.4,1.1,2-1.3,6.3c-2.3,4.3-2,5-2,5L1069,339.8z"/>
<path fill="#4D66A1" d="M1187.1,909.7c-1.8-0.9-2.3-2.2,0.4-7c2.7-4.9,3.4-5.9,3.4-5.9l19.8,3.1l3.1,10.1L1187.1,909.7z"/>
<path fill="#7622A4" d="M1215.3,882c2.9-4.9,5.2-4.1,5.2-4.1h2.3c0,0-0.2,26.6-0.2,31.9h-9l-3.1-10.1c0,0,0,0,0.2,0
	C1212.1,898,1212.3,886.7,1215.3,882z"/>
<rect x="1205.2" y="892.2" transform="matrix(4.715978e-003 -1 1 4.715978e-003 321.6938 2110.6528)" fill="#112882" width="31.9" height="3.1"/>
<path fill="#4D66A1" d="M1104.8,886.9l11.3-4l2.3,3.1c0,0,4.3,5.6,5.8,7.2l-8.8,5L1104.8,886.9z"/>
<path fill="#7288E8" d="M1141.5,894.4c5,1.8,4.7,4,4.7,4l0.4,2.2c0,0-24.8,4.3-29.7,5.2l-1.3-7.6l8.8-5l0,0
	C1125.7,894.6,1136.5,892.6,1141.5,894.4z"/>
<polygon fill="#112882" points="1116.3,902.9 1146.2,897.7 1146.7,900.5 1116.9,905.8 "/>
<path fill="#5B74DE" d="M927.9,907.9c5.4,3.4,15.1,4.1,20.7-2.2c18.2-20.5,56-63.4,56-63.4c11.3-10.3,20.3-16.7,23-9.4
	c2.9,7.4-0.2,12.6,10.4,18c10.6,5.2,14.8,7.9,16.7,16.7c2.7,12.4,15.8,5.6,21.2,14.4c5.2,8.8,9.7,16.2,24.8,11.9
	c15.1-4.5,16.9-9.4,16.9-9.4s-62.1-78.3-73.8-90.9c-11.7-12.6-20.2-12.8-34.6-1.6c-12.2,9.4-46.3,39.4-66.1,55.8
	C933.1,856.6,917.8,901.4,927.9,907.9z"/>
<path fill="#4D66A1" d="M992.1,791.6c2.9-9,7.6-12.6,9.5-11.7c0.7,0.4-2,3.4-1.6,4.1c0.4,0.7,11.5,0.5,13.9,0s8.5,1.1,0.9,3.2
	c-7.6,2.2-13.7,7.2-13.7,7.2L992.1,791.6z"/>
<polygon fill="#4D66A1" points="932.9,760 934.3,748.3 931.1,742 913.5,733.9 909.9,755.8 "/>
<path fill="#7622A4" d="M1000.8,794.7c-22.3,35.3-29,51.5-39.1,58.5c-10.3,6.8-62.1-64.8-62.1-64.8l7.6-10.4
	c18.4-0.7,32.6,56.9,39.8,50.8c2.3-2,5.6-0.2,5.9-1.8c2.7-8.3,6.3-2.3,9.9-6.5c6.3-7.7,29.9-30.6,29.9-30.6L1000.8,794.7z"/>
<path fill="#7288E8" d="M919,910.4c31.1,0.9,127.8,1.6,137.7,0c9.9-1.6,36.2,18.9,53.6,12.2c17.3-6.7,30.1,0.7,39.2,0s20-9.9,32-5.8
	c12.1,4.1,11.7-20,11.7-20s-111.1-26.8-134.8-26.6c-17.8,0.2-153.5-3.1-153.5-3.1S905.9,910.1,919,910.4z"/>
<path fill="#7622A4" d="M957.7,775.3c-1.4,21.2,12.4,86.2,12.8,93.4c-21.6,7.9-22.7,14.4-29.5,25c-8.6,13.5-25.4,13.5-25.4,13.5
	c-14.4-10.1-8.1-12.6-21.8-99.4c-4-25.2-5-45.5,30.4-47c12.4-0.5,24.7,4.3,24.7,4.3L957.7,775.3z"/>
<linearGradient id="SVGID_4_" gradientUnits="userSpaceOnUse" x1="901.9448" y1="761.4" x2="937.9447" y2="761.4">
	<stop  offset="0" style="stop-color:#7622A4"/>
	<stop  offset="1" style="stop-color:#C60983"/>
</linearGradient>
<polygon fill="url(#SVGID_4_)" points="937.9,766.8 935.1,758.2 909.9,755.8 901.9,767 "/>
<path fill="#4D66A1" d="M911.7,732.8c-4.5-8.6-1.6-18.9,6.5-23c8.1-4.1,18.2-0.4,22.7,8.1c4.5,8.6,1.6,22.9-4.9,26.1
	C929.5,747.2,916.2,741.2,911.7,732.8z"/>
<linearGradient id="SVGID_5_" gradientUnits="userSpaceOnUse" x1="905.1848" y1="722.569" x2="935.7847" y2="722.569">
	<stop  offset="0" style="stop-color:#7622A4"/>
	<stop  offset="1" style="stop-color:#C60983"/>
</linearGradient>
<path fill="url(#SVGID_5_)" d="M927.1,704.2c5.2,3.8,8.5,7.7,8.5,7.7s0.2,6.3,0.2,9.9c0,3.6-4.3,8.1-5,8.8c0,0-1.8-2.9-4.1-2.3
	c-2.3,0.5-1.4,4.3,1.1,5.4c2.3,1.1-0.4,7.2-2.5,7.4c-2.2,0.2-12.4-2.9-12.4-2.9s-5.6-15.1-7.6-18.7
	C909,709.2,915.3,703.3,927.1,704.2z"/>
<g>
	<path fill="#112882" d="M1078.2,783.4c-0.5,0.9-1.6,1.6-2.9,1.6h-81.5c-1.1,0-1.6-0.7-1.6-1.6c0-0.9,0-1.1,0-1.3l83.2-0.4
		l20.7-35.3c0.5-0.7,0.4-0.5,0.7-1.1c1.8,0.9,2.3,2.3,1.6,3.8L1078.2,783.4z"/>
	<path fill="#1731A4" d="M1050.1,746.3l46.4-0.9l-21.4,36.4l-47.9,0.2L1050.1,746.3z"/>
	<polygon fill="#DBE2FF" points="1092.9,747.4 1051.3,748.3 1031.2,779.9 1073.8,779.8 	"/>
</g>
<path fill="#4D66A1" d="M1054.8,795.8c8.3-3.1,7.2-1.1,20-6.8c7.7-3.4,1.4-7.4-4.7-5.6c-6.3,1.8-6.1-2-6.1-2s1.6-3.4,0.4-3.8
	s-3.1,1.6-3.8,4.1c-0.7,2.5-11,7.7-11,7.7L1054.8,795.8z"/>
<path fill="#7622A4" d="M1052.4,787.9c5,1.8,4,7.9,7,13.1c0,0-50.2,21.8-56.3,24.1c-5.9,2.3-11-0.9-18-5.9
	c-7.2-5-41.4-13.5-45.4-16.2s-5-41.8,10.3-32.9c5.8,3.2,23,9.9,36.7,20.3c7.4,5.8,9.4,7.2,9.7,9.9c0.5,5.4,7-1.3,9.7-0.4
	c2.7,0.9,2.5,4.1,7,2.9C1017.7,801.4,1052.4,787.9,1052.4,787.9z"/>
<polygon fill="#5B74DE" points="1074.4,751.3 1065.2,765.9 1058.9,765.9 1068.6,751.3 "/>
<path fill="#5B74DE" d="M1055.3,775.4c1.3,1.1,3.6,0.4,5.4-1.6c1.8-2,2.2-4.3,1.1-5.4c-1.3-1.1-3.6-0.4-5.4,1.6
	C1054.6,772,1054,774.5,1055.3,775.4z"/>
<g>
	<polygon fill="#90A3F5" points="1013.4,643.7 1047,721.8 1051.9,719.6 1018.2,641.7 	"/>
	<polygon fill="#90A3F5" points="1004.7,703.6 1035.5,733.5 1039.1,729.9 1008.3,700 	"/>
	<polygon fill="#90A3F5" points="1080.9,668.3 1070.2,720.9 1075.3,721.8 1085.9,669.4 	"/>
</g>
<path fill="#4D66A1" d="M666.7,455c13.9,0,32.4-8.1,34.2-8.5c13.3-2.2,29.2-2,29.2-2s-39.4,20.9-54.9,26.5
	c-15.7,5.6-9.5-8.3-9.5-8.3L666.7,455z"/>
<path fill="#4D66A1" d="M625.1,487.8c1.6-10.1-4.5-29,0-31c4.5-2,41.4-2.9,45.9-1.1c4.5,1.6,4,15.1,4,16.7l-12.2,19.3L625.1,487.8z"
	/>
<path fill="#4D66A1" d="M806.4,616.7l12.4-2l1.8,3.6c0,0,3.4,6.7,4.5,8.5l-9.9,3.6L806.4,616.7z"/>
<path fill="#FFFFFF" d="M842.7,631.1c4.9,2.7,4.1,5,4.1,5v2.3c0,0-26.5,0-31.7,0v-8.1l9.9-3.6c0,0,0,0,0,0.2
	C826.3,628.4,837.9,628.4,842.7,631.1z"/>
<rect x="815.4" y="635.4" fill="#112882" width="31.7" height="2.9"/>
<path fill="#112882" d="M836.8,634c-0.4,0-0.7-0.2-0.9-0.4c-0.5-0.5-0.5-1.4-0.2-2l2.7-3.1c0.5-0.5,1.4-0.5,2-0.2
	c0.5,0.5,0.5,1.4,0.2,2l-2.7,3.1C837.5,633.8,837.1,634,836.8,634z"/>
<path fill="#112882" d="M831.4,633.1c-0.4,0-0.7-0.2-0.9-0.4c-0.5-0.5-0.5-1.4-0.2-2l2.7-3.1c0.5-0.5,1.4-0.5,2-0.2
	c0.5,0.5,0.5,1.4,0.2,2l-2.7,3.1C832.1,632.9,831.7,633.1,831.4,633.1z"/>
<path fill="#112882" d="M826.2,632.3c-0.4,0-0.7-0.2-0.9-0.4c-0.5-0.5-0.5-1.4-0.2-2l2.7-3.1c0.5-0.5,1.4-0.5,2-0.2
	c0.5,0.5,0.5,1.4,0.2,2l-2.7,3.1C826.9,632.2,826.5,632.3,826.2,632.3z"/>
<path fill="#4D66A1" d="M649.9,441.4c-5.9-7.4-5-17.8,1.8-23.2c7-5.4,17.5-3.8,23.2,3.8c5.9,7.4,5.8,21.6,0.2,25.9
	C669.7,452,655.9,448.7,649.9,441.4z"/>
<path fill="#4D66A1" d="M755.1,687.6l11,6.1l-0.9,4c0,0-1.4,7.4-1.8,9.4l-10.1-3.4L755.1,687.6z"/>
<path fill="#FFFFFF" d="M774.3,721.4c2.2,5,0,6.3,0,6.3l-1.4,1.8c0,0-20.5-16.4-24.5-19.6l5.2-6.3l10.1,3.4c0,0,0,0,0,0.2
	C763.2,709.2,772.2,716.2,774.3,721.4z"/>
<polygon fill="#112882" points="750.2,707.6 774.7,727.2 772.9,729.5 748.2,709.9 "/>
<path fill="#112882" d="M769.3,720.2c-0.7,0-1.3-0.5-1.3-1.1c-0.2-0.7,0.4-1.4,1.1-1.6l4-0.7c0.7-0.2,1.4,0.4,1.6,1.1
	c0.2,0.7-0.4,1.4-1.1,1.6l-4,0.7C769.5,720.2,769.3,720.2,769.3,720.2z"/>
<path fill="#112882" d="M765,716.6c-0.7,0-1.3-0.5-1.3-1.1c-0.2-0.7,0.4-1.4,1.1-1.6l4-0.7c0.7-0.2,1.4,0.4,1.6,1.1
	c0.2,0.7-0.4,1.4-1.1,1.6l-4,0.7C765.1,716.4,765.1,716.6,765,716.6z"/>
<path fill="#112882" d="M761.5,711.7c-0.7,0-1.3-0.5-1.3-1.1c-0.2-0.7,0.4-1.4,1.1-1.6l4-0.7c0.7-0.2,1.4,0.4,1.6,1.1
	c0.2,0.7-0.4,1.4-1.1,1.6l-4,0.7C761.7,711.7,761.5,711.7,761.5,711.7z"/>
<path fill="#5B74DE" d="M756.9,560c0,7.6-8.8,9.5,0.2,17.1c9.2,7.6,12.4,10.8,12.6,19.4c0,12.1,14.2,9,17.3,18.4
	c3.2,9.4-0.4,12.2,15.1,11.9c15.5-0.5,21.2-3.2,21.2-3.2s-30.4-63-38.9-80.6c-7.9-16.6-17.1-18.7-42.8-15.1
	c-17.5,2.3-56.7,6.5-92,6.7C649.6,534.2,757,552.6,756.9,560z"/>
<path fill="#7288E8" d="M616.6,564.5c0.9,6.5,7.2,14.6,15.8,14.6c29,0,89.1,0,89.1,0c16,1.8,27.4,4.3,23.4,11.5
	c-4,7.4-10.3,8.5-7.2,20.5c3.1,11.9,3.8,16.9-1.8,24.5c-7.9,10.6,6.5,16.2,3.1,26.3s-6.3,18.7,7.6,27.4c14,8.6,19.1,6.7,19.1,6.7
	s19.8-101.7,21.8-119.3c2-17.6-3.8-24.5-22.5-28.1c-15.8-3.1-63.4-8.8-90-13c-13.9-2.2-20.7-35.5-45.2-27.7
	C630,507.8,615,552.2,616.6,564.5z"/>
<path fill="#7622A4" d="M625.1,487.8c0.4-1.8-4.3,44.5-7.9,67.1c0,0,6.8-11.9,16.6-9.7c9.4,2,16.6-8.5,26.5-6.8
	c9.9,1.6,17.1-13.1,17.1-13.1s-0.4-37.4-1.3-45.9c-1.1-8.5-1.8-8.6-1.8-8.6C658.4,470.3,625.1,487.8,625.1,487.8z"/>
<path fill="#4D66A1" d="M637.7,462.1c7.2-11,18.7-23.9,18.7-23.9l10.1,11.2l-2,11.5L637.7,462.1z"/>
<path fill="#7622A4" d="M650.1,450.2c-15.7,16.9-66.6,1.3-57.8-46.3c6.8-37.3,66.6-42.1,78.8-6.1c1.8,5.6-0.2,11-0.2,11
	c7-0.4,13,0.7,13,5.2c0.2,9.7-11.2,11.5-16.4,11.3c-6.5-0.4-5-3.6-7.4-2.3c-3.6,2-2.2,14.2-3.1,15.7c-0.9,1.4-4-3.4-7-3.1
	c-3.1,0.5,0.4,5.8,2.2,6.8C654.3,443.7,652.1,448,650.1,450.2z"/>
<path fill="#7288E8" d="M654.1,437.2c-3.8-14.2,5.6-24.7,17.1-28.3c0,0-7.7-2.2-14.2,2c-6.5,4.1-9.5,15.8-5.4,24.8L654.1,437.2z"/>
<path fill="#112882" d="M636.3,456.3c6.7-0.4,15.7,19.6,15.7,19.6l1.6-0.5c0,0-3.4-7.4-7.4-13.3c-5.4-7.7-8.8-7.2-8.8-7.2
	L636.3,456.3z"/>
<path fill="#112882" d="M665.4,455c3.8,5,6.5,15.8,6.5,15.8h1.3c0,0-3.4-12.4-6.3-15.7L665.4,455z"/>
<rect x="582.3" y="761" fill="#DBE2FF" width="150.3" height="148.3"/>
<path fill="#8EA7E3" d="M642.7,796.9c13.1,14.4,27.7,41.2,32,43.2c4.5,2,43.6-19.8,43.6-19.8l2.3,8.3c0,0-41.6,25.6-47.7,28.1
	c-6.1,2.5-36.2-40.9-36.2-40.9L642.7,796.9z"/>
<path fill="#8EA7E3" d="M743,1029.8l12.6,2.7l0.4,4.1c0,0,0.7,7.6,1.1,9.7l-10.8-0.4L743,1029.8z"/>
<path fill="#7622A4" d="M772.2,1057c3.6,4.3,2,6.3,2,6.3l-0.9,2.2c0,0-25-9.7-30.1-11.7l3.1-7.7l10.8,0.4c0,0,0,0,0,0.2
	C757.4,1048.5,768.6,1052.6,772.2,1057z"/>
<path fill="#8EA7E3" d="M682.9,778.5c1.8-9.5-4-18.5-12.8-20.2c-8.8-1.6-17.6,4.7-19.3,14.2c-1.8,9.5,5.2,22.3,12.2,23.6
	C670.1,797.4,681.1,788,682.9,778.5z"/>
<path fill="#7622A4" d="M620.6,909.2c21.6-1.3,41.6,15.5,63.4,23.9c21.8,8.5,25,14.6,23.9,23.2c-0.5,5.2-6.7,7.2,5.4,19.3
	c19.3,19.3,3.4,1.6,3.6,36.2c0.2,17.3,15.7,19.6,27,25.2c10.8,5.2,25.6-4,25.6-4s-20.2-73.4-28.4-96.7
	c-8.3-23.2-14.8-34.2-37.3-46.4c-11-5.9-28.4-13-41.9-16c-49.3-11.3-58.7-8.5-58.7-8.5l-45,15.3c0,0-0.9,5.9,2.5,16
	c5,15.1,30.2,12.4,30.2,12.4H620.6z"/>
<path fill="#7622A4" d="M635.2,868.3c42.3,6.5,76.9,1.4,92.2,5.8c11,3.2,15.8,20.5,9.2,27.7c-9.4,10.1-22.5,8.1-81,32.8
	c5.8-8.6-22-24.3,0-37.4c9.4-5.6,18.5,5.9,18.2-5c-0.2-5.6,25.7-4.5,25.7-4.5L635.2,868.3z"/>
<polygon fill="#455FCC" points="743.2,1053.7 744.4,1051 774.1,1063.3 773.2,1065.4 "/>
<path fill="#112882" d="M647.2,907c2.7-5.4,7.7-7.9,7.6-3.1c-0.2,4.7-0.7,10.6,0.7,13c1.4,2.5,4.7,16,0,17.6
	c-4.7,1.6-5.2-9.7-7-16.6C646.9,911.2,647.2,907,647.2,907z"/>
<path fill="#8EA7E3" d="M655,904c-0.2,5.8-0.2,11,0.7,13l-6.3,2.2c0,0-7,3.2-9,4.1l-9.7-8.1L655,904z"/>
<path fill="#7622A4" d="M649.4,935.8c1.4,5.4-0.9,6.5-0.9,6.5l-1.8,1.6c0,0-18.5-19.4-22.1-23.2l6.1-5.6l11.5,7.2l0,0
	C641.7,924.3,648.1,930.4,649.4,935.8z"/>
<polygon fill="#455FCC" points="624.7,920.9 626.9,918.7 648.7,942.3 646.7,944.3 "/>
<polygon fill="#7622A4" points="558.1,880.7 603.1,865.4 603.1,865.4 561.4,866.2 "/>
<path fill="#FFFFFF" d="M561.4,866.2c0,0,17.5-43.2,25.4-56.3c18-29.5,50.9-25.9,61.9-11.3c5.6,7.4-2,27.4-8.6,33.7
	c-13.5,12.4-34,33.3-34,33.3L561.4,866.2z"/>
<path fill="#8EA7E3" d="M597.4,802.4c-10.4,9-18.2,32.4-11.2,31.1c21.2-3.6,25.7-22.3,29-29.9C618.4,796.1,610,791.6,597.4,802.4z"
	/>
<polygon fill="#B8C5FF" points="720.3,837.9 687.2,877.3 729,877.3 760.6,837.9 "/>
<path fill="#8EA7E3" d="M593.2,819c1.1,8.5,19.4,45.7,29.5,61.7c1.6,2.7,5.4,8.1,10.4,7.7c19.3-1.6,48.4-12.2,54.2-14
	c9.2-2.7,13.7,0.9,18.9-2.3s8.5-13.3,2.2-11.5c-6.3,1.8-11,4.5-11,4.5s4.3-4,3.2-5.6c-1.1-1.4-5.8,3.4-7,4.7
	c-2.9,2.3-51.5,9.4-56.5,9s-17.6-68.4-21.2-73.8C612.1,794,593.2,819,593.2,819z"/>
<path fill="#DBE2FF" d="M715.8,821.7c5.6-4.7,9.5-2.3,12.6,2.5c3.1,4.9-1.8,9.4-3.1,7.2s-4.3-2.7-4.3-2.7L715.8,821.7z"/>
<path fill="#112882" d="M727.3,835.4c-0.4,0-0.9-0.2-1.1-0.5l-13.3-17.3c-0.5-0.5-0.4-1.4,0.2-2c0.5-0.5,1.4-0.4,2,0.2l13.3,17.3
	c0.5,0.5,0.4,1.4-0.2,2C727.9,835.4,727.5,835.4,727.3,835.4z"/>
<path fill="#8EA7E3" d="M718.2,829.3c4-0.2,7.7-2.5,4.9-3.6c-2.9-0.9-6.1-0.9-6.1-0.9L718.2,829.3z"/>
<path fill="#8EA7E3" d="M626.5,787.5c-3.2,1.8,0.7,26.3,10.4,32.9c8.8,5.9,9.9-21.1,11.2-23.8c1.3-2.7,13.5-15.1,13.5-15.1l-9-8.5
	C652.5,773.1,637.5,781.4,626.5,787.5z"/>
<linearGradient id="SVGID_6_" gradientUnits="userSpaceOnUse" x1="611.1659" y1="791.82" x2="637.1231" y2="791.82">
	<stop  offset="0" style="stop-color:#7622A4"/>
	<stop  offset="1" style="stop-color:#C60983"/>
</linearGradient>
<path fill="url(#SVGID_6_)" d="M625.5,776.9c-17.3,4.1-19.3,20.9-4,29.9c0,0,13.9-1.3,15.5-12.8
	C638.6,782.6,625.5,776.9,625.5,776.9z"/>
<linearGradient id="SVGID_7_" gradientUnits="userSpaceOnUse" x1="608.8774" y1="816.7499" x2="631.7058" y2="816.7499">
	<stop  offset="0" style="stop-color:#7622A4"/>
	<stop  offset="1" style="stop-color:#C60983"/>
</linearGradient>
<path fill="url(#SVGID_7_)" d="M621.5,803.3c-11.9,1.8-21.8,20,1.4,26.8C643.5,816.7,621.5,803.3,621.5,803.3z"/>
<linearGradient id="SVGID_8_" gradientUnits="userSpaceOnUse" x1="614.7366" y1="840.15" x2="632.4322" y2="840.15">
	<stop  offset="0" style="stop-color:#7622A4"/>
	<stop  offset="1" style="stop-color:#C60983"/>
</linearGradient>
<path fill="url(#SVGID_8_)" d="M621.3,827.6c-13.5,14.6-4,19.6,8.1,25C634.6,842.4,633.7,837.5,621.3,827.6z"/>
<path fill="#FFFFFF" d="M626,807.1c-0.2,0-0.4,0-0.5-0.2c0,0-4.1-1.8-8.5-1.4c-0.7,0-1.4-0.5-1.4-1.3c0-0.7,0.5-1.4,1.3-1.4
	c5-0.4,9.5,1.4,9.7,1.6c0.7,0.4,1.1,1.1,0.7,1.8C626.9,806.8,626.5,807.1,626,807.1z"/>
<linearGradient id="SVGID_9_" gradientUnits="userSpaceOnUse" x1="616.6099" y1="829.2074" x2="625.8707" y2="829.2074">
	<stop  offset="0" style="stop-color:#7622A4"/>
	<stop  offset="1" style="stop-color:#C60983"/>
</linearGradient>
<path fill="url(#SVGID_9_)" d="M624.7,830.7c-0.2,0-0.2,0-0.4,0c0,0-2.2-0.5-6.1,0c-0.7,0.2-1.4-0.4-1.6-1.1
	c-0.2-0.7,0.4-1.4,1.1-1.6c4.5-0.7,7,0,7.2,0c0.7,0.2,1.1,0.9,0.9,1.6C626,830.3,625.5,830.7,624.7,830.7z"/>
<linearGradient id="SVGID_10_" gradientUnits="userSpaceOnUse" x1="623.3408" y1="769.8126" x2="688.4269" y2="769.8126">
	<stop  offset="0" style="stop-color:#7622A4"/>
	<stop  offset="1" style="stop-color:#C60983"/>
</linearGradient>
<path fill="url(#SVGID_10_)" d="M623.5,777.6c-1.6-7.2,10.8-5.6,18.7-13.1c7.9-7.4,32.4-18.5,41-5.2c8.5,13.3,5.4,26.3-0.9,27.2
	c-6.3,0.9-19.6-1.8-18.7-6.1c0.9-4.5-2.5-7-4.5-4.5c-1.8,2.5-1.8,4.9-3.2,5.4c-18.9,6.5-23.4-4-28.6-0.2
	C622.2,784.4,623.5,777.6,623.5,777.6z"/>
<path fill="#FFFFFF" d="M631,781.2c-0.4,0-0.7-0.2-1.1-0.4c0,0-3.8-3.8-7.9-2.9c-0.7,0.2-1.4-0.4-1.6-1.1c-0.2-0.7,0.4-1.4,1.1-1.6
	c5.6-1.3,10.3,3.4,10.4,3.6c0.5,0.5,0.5,1.4,0,2C631.8,781,631.4,781.2,631,781.2z"/>
<g>
	<path fill="#DBE2FF" d="M1282.8,386.1c0-9,7.4-16.4,16.6-16.4c3.8,0,7.4,1.3,10.1,3.4l16-16.4c-7-6.1-16.2-9.7-26.1-9.7
		c-22,0-39.6,17.5-39.6,39.1c0,21.6,17.8,39.1,39.6,39.1v-22.7C1290.2,402.5,1282.8,395.1,1282.8,386.1z"/>
	<path fill="#B8C5FF" d="M1339.2,386.1c0-11.7-5.2-22.1-13.5-29.3l-16,16.4c4,3.1,6.5,7.7,6.5,13c0,9-7.4,16.4-16.6,16.4v22.7
		C1321.3,425.2,1339.2,407.7,1339.2,386.1z"/>
</g>
<g>
	<polygon fill="#DBE2FF" points="564.4,77.9 574.7,107.3 600.8,98.3 590.4,68.8 604.4,63.9 567.9,44.1 550.2,82.8 	"/>
	<polygon fill="#DBE2FF" points="604.9,110 578.8,119 576,110.9 602.1,101.7 	"/>
	<polygon fill="#DBE2FF" points="608.2,119.3 582.3,128.5 580.1,122.6 606.2,113.4 	"/>
</g>
<polygon fill="#B8C5FF" points="1142.6,50.2 1299.4,121.1 1257.4,9.9 "/>
<path fill="#4D66A1" d="M552.7,526.7c-9-1.3-15.7,6.8-9,13.9c6.7,6.8,6.3-4.3,6.8-7C550.9,531,552.7,526.7,552.7,526.7z"/>
<path fill="#4D66A1" d="M758.3,401.4c-5.6,2.7-1.8,11.2,6.5,9.5s10.4-6.3,7.4-9.5C768.9,398.2,758.3,401.4,758.3,401.4z"/>
<path fill="#8EA7E3" d="M810,197.3c-23-11-12.4-25.2-5.8-22c5.9,2.9,34,54.2,39.4,54.4c26.3,1.1,51.8-10.4,51.8-10.4l5,14.2
	c0,0-44.5,13.5-58.7,10.1C827.8,240.1,810,197.3,810,197.3z"/>
<path fill="#8EA7E3" d="M964.6,547.2c0,0,5,8.1,7,11.9c1.8,3.2,3.2,4.7-4.3,10.3c-7.2,5.2-6.8,6.8-6.3,8.6l11.9-5.9
	c0,0,2.3-1.1,8.1-4c5.6-2.7,2.2-7.4-1.4-11.7c-2.9-3.2-11.5-25.7-11.5-25.7l-6.3,11L964.6,547.2z"/>
<polygon fill="#1731A4" points="986.7,568.8 962.4,580.9 960.8,578 985.1,565.9 "/>
<polygon fill="#DBE2FF" points="965.3,570.8 968,574.4 976.8,570.1 972,564.8 "/>
<path fill="#8EA7E3" d="M901.6,550.3c0,0,0.7,9.4,0.7,13.7c0,3.8,0.7,5.6-8.5,7.2c-8.8,1.4-9.4,3.1-9.7,4.9h13.3c0,0,2.5,0,9,0
	c6.1,0,5.4-5.6,4-11.2c-1.1-4.1,1.4-28.1,1.4-28.1l-10.6,6.8L901.6,550.3z"/>
<rect x="884.3" y="576.2" transform="matrix(-1 1.192720e-003 -1.192720e-003 -1 1796.4794 1154.5295)" fill="#1731A4" width="27.2" height="3.2"/>
<polygon fill="#DBE2FF" points="891.5,571.7 892.2,576.2 902.1,576.2 900.1,569.3 "/>
<path fill="#90A3F5" d="M893.3,300.6c0,0-6.3,130-4,137.7c2.3,7.7,11.5,109.3,11.5,109.3s9.2-7.7,18-6.3c4.9,0.9,9.5-2.2,10.8-7.2
	s0.7-9.5-0.5-12.8c-2.5-7.2-4-12.6,0.2-31.7c4.1-19.1-11.5-31.3-7.9-44.5c3.8-13,12.1-145.6,12.1-145.6L893.3,300.6z"/>
<path fill="#7288E8" d="M893.3,300.6c-1.1,23.4,7.2,104.8,11.5,130.1S964,546.1,964,546.1s2-8.6,9.5-11.5c8.8-3.2,10.4-5.8,10.4-5.8
	s5.8-4.7-7-15.7c-12.8-11,4.3-23.9-12.2-34.9c-23.9-16,2.2-18.5-16.7-40.7c-9.7-11.3,1.8-72.5-2.7-96.8
	c-3.6-18.7-11.7-41.2-11.7-41.2L893.3,300.6z"/>
<path fill="#7288E8" d="M959.5,538.7c2.7,4.7,4.5,7.4,4.5,7.4s2.7-8.8,10.6-10.8c4.9-1.3,7.9-3.6,9.5-6.1c1.4-2.2,2.7-5.4-0.4-8.3
	c-3.1,2.9-7.9,4-15.3,7.7C963.3,531.4,960.6,536,959.5,538.7z"/>
<path fill="#7288E8" d="M900.7,546.1l0.5,6.5c0,0,4.3-5.2,12.6-5.8c8.3-0.5,10.8-1.4,13-4.1c2.2-2.7,2.9-8.6,2.9-8.6
	s-6.3,5.2-13.9,5.6C906.6,540,902.5,543.2,900.7,546.1z"/>
<rect x="893.2" y="295.4" transform="matrix(-0.9997 2.606898e-002 -2.606898e-002 -0.9997 1834.1011 571.7371)" fill="#B8C5FF" width="40.3" height="4.9"/>
<path fill="#7622A4" d="M893.1,295.7c-4.9-12.2-7.7-7.9-4.5-30.4c3.2-22.7-7.7-29-0.2-40.7c7.6-11.7,31.7-10.6,45.9-7.2
	c1.3,0.4,2.3,0.9,3.4,1.6c10.3,7.9,7.6,38.2,5.8,53.6c-1.8,16.9-10.1,22-10.1,22L893.1,295.7z"/>
<path fill="#8EA7E3" d="M901.8,200.7c1.1,3.8,1.8,15.5,1.8,15.5s-0.9,7.9,4.9,7.9s15.3-8.5,15.3-8.5l-7.6-16.7L901.8,200.7z"/>
<path fill="#8EA7E3" d="M922.3,190.4c2-9.5-3.6-18.7-12.4-20.5s-17.6,4.3-19.6,13.9c-2,9.5,4.7,22.3,11.7,23.8
	C909.1,209.2,920.3,200,922.3,190.4z"/>
<linearGradient id="SVGID_11_" gradientUnits="userSpaceOnUse" x1="889.6423" y1="208.7971" x2="973.5847" y2="208.7971">
	<stop  offset="0" style="stop-color:#7622A4"/>
	<stop  offset="1" style="stop-color:#C60983"/>
</linearGradient>
<path fill="url(#SVGID_11_)" d="M889.9,187.9c7.7,2.5,15.1,1.8,15.1,1.8l2.9-6.1c0,0-0.7,20.5,8.5,37.3c9.2,16.9,31,29.2,31,29.2
	s15.1-1.8,26.3-23.2c0,0-30.1-2.9-42.3-37.8c-6.1-17.6-17.5-21.6-23-21.4c-5.6,0.2-11.5,0.5-15.7,7
	C888.4,181.4,889.9,187.9,889.9,187.9z"/>
<path fill="#8EA7E3" d="M913.3,189.4c-0.9,2.5,2.2,5.9,2.2,5.9s3.2-3.6,3.1-5.9C918.3,187,913.8,187.7,913.3,189.4z"/>
<linearGradient id="SVGID_12_" gradientUnits="userSpaceOnUse" x1="930.7448" y1="199.8" x2="954.6848" y2="199.8">
	<stop  offset="0" style="stop-color:#7622A4"/>
	<stop  offset="1" style="stop-color:#C60983"/>
</linearGradient>
<path fill="url(#SVGID_12_)" d="M930.7,187.2c4.1,7.7,23.9,19.8,23.9,19.8l-4,5.4l-20-10.6V187.2z"/>
<g>
	<path fill="#7288E8" d="M743,157.3c0,0,1.4,4.3,1.4,5.9c0.4,8.3-78.8,15.5-78.8,15.5l27.5-29.3l-26.3-21.6l63.7-10.4L743,157.3z"/>
	<path fill="#455FCC" d="M737.8,158c1.4,3.6,5.8,1.3,6.7,5.4l-2.9-11.9l-3.8,2.3C737.8,153.9,737.4,157.1,737.8,158z"/>
	<path fill="#90A3F5" d="M783.3,89.6c-46.3-16.4-65.5,9.5-64.8,13.7c0.7,4.1,19.3,54.5,19.3,54.5s1.3-3.2,7-7.2
		c5.6-4,28.3-13.5,53.1-5.4L783.3,89.6z"/>
</g>
<rect x="707.9" y="162.7" transform="matrix(-0.2512 -0.9679 0.9679 -0.2512 840.6205 980.1204)" fill="#7288E8" width="183.1" height="4.3"/>
<path fill="#8EA7E3" d="M825.8,254.2c-25.6-2.5-20.5-19.4-13.1-18.7c6.7,0.7,50.9,39.2,56.2,37.6c25-7.9,46.8-27.9,46.8-27.9
	l7.9,12.1c0,0-37.1,27.9-51.5,29.5C857.5,288.4,825.8,254.2,825.8,254.2z"/>
<g>
	<path fill="#DBE2FF" d="M1415.8,211c-6.5-21.6-30.2-33.5-52-25.6c-18.4,6.8-29,26.1-24.8,45c2.7,11.7,10.1,20.9,19.8,25.9
		c8.6,4.5,14.9,12.2,17.8,21.4l1.3,4.1l32.8-9.5l-1.3-4.1c-2.7-9.2-1.6-19.1,3.1-27.4C1417.5,232,1418.9,221.4,1415.8,211z"/>
	<path fill="#90A3F5" d="M1387.6,279.5l-14.6-48.6l-4.3,1.3c-3.4,1.1-7.2-0.9-8.3-4.5l-0.5-2.2c-0.5-1.6-0.4-3.4,0.5-5
		c0.9-1.6,2.3-2.7,4-3.2c3.4-1.1,7.2,0.9,8.3,4.5l1.8,6.3l9-2.7l-1.8-6.3c-0.5-1.6-0.4-3.4,0.5-5c0.9-1.6,2.3-2.7,4-3.2l0.5-0.2
		c3.4-1.1,7.2,0.9,8.3,4.5l0.5,2.2c0.5,1.6,0.4,3.4-0.5,5c-0.9,1.6-2.3,2.7-4,3.2l-4.7,1.4l14.6,48.6l-2.2,0.5l-14.6-48.6l-9,2.7
		l14.6,48.6L1387.6,279.5z M1366.2,219.4c-0.4,0-0.9,0-1.3,0.2c-1.1,0.4-2.2,1.1-2.7,2.2c-0.5,1.1-0.7,2.2-0.4,3.2l0.5,2.2
		c0.7,2.3,3.2,3.6,5.6,2.9l4.3-1.3l-1.8-6.3C1369.9,220.7,1368.1,219.4,1366.2,219.4z M1388.5,212.9c-0.4,0-0.9,0-1.3,0.2l-0.5,0.2
		c-1.1,0.4-2.2,1.1-2.7,2.2c-0.5,1.1-0.7,2.2-0.4,3.2l1.8,6.3l4.7-1.4c1.1-0.4,2.2-1.1,2.7-2.2c0.5-1.1,0.7-2.2,0.4-3.2l-0.5-2.2
		C1392.3,214.2,1390.5,212.9,1388.5,212.9z"/>
	<path fill="#90A3F5" d="M1420.5,293.6c0,0-4.5,5.2-18.5,9.4c-14.4,4.1-20.7,2-20.7,2l-6.7-22.1l39.2-11.3L1420.5,293.6z"/>
</g>
<path fill="#4D66A1" d="M625.1,456.8c-17.8,29-18.2,59-23.4,65l-6.1,12.8c0,0,9.4,0.2,19.1-11.7c9.7-11.9,18-41.4,18-41.4l-7.2-23
	L625.1,456.8z"/>
<rect x="769.3" y="-384" fill="#7622A4" width="288" height="288"/>
<rect x="1108" y="-393.9" fill="#C60983" width="288" height="288"/>
<linearGradient id="SVGID_13_" gradientUnits="userSpaceOnUse" x1="1688.0601" y1="-69.5755" x2="1491.3326" y2="-410.3173">
	<stop  offset="0" style="stop-color:#7622A4"/>
	<stop  offset="1" style="stop-color:#C60983"/>
</linearGradient>
<rect x="1445.7" y="-384" fill="url(#SVGID_13_)" width="288" height="288"/>
</svg>
